<svg xmlns="http://www.w3.org/2000/svg" width="24" height="24" viewBox="0 0 24 24" class="icon icon-tabler icons-tabler-outline icon-tabler-arrow-up-right">
  <defs/>
  <path fill="currentColor" d="M17.707,7.707 L7.707,17.707 Q7.414,18 7,18 Q6.586,18 6.293,17.707 Q6,17.414 6,17 Q6,16.586 6.293,16.293 L16.293,6.293 Q16.586,6 17,6 Q17.414,6 17.707,6.293 Q18,6.586 18,7 Q18,7.414 17.707,7.707 Z"/>
  <path fill="currentColor" d="M8,6 L17,6 Q17.414,6 17.707,6.293 Q18,6.586 18,7 L18,16 Q18,16.414 17.707,16.707 Q17.414,17 17,17 Q16.586,17 16.293,16.707 Q16,16.414 16,16 L16,8 L8,8 Q7.586,8 7.293,7.707 Q7,7.414 7,7 Q7,6.586 7.293,6.293 Q7.586,6 8,6 Z"/>
</svg>
