<svg xmlns="http://www.w3.org/2000/svg" role="img" viewBox="0 0 24 24">
  <defs/>
  <path d="M11.944,0 A12 12 0 0 0 0,12 A12 12 0 0 0 12,24 A12 12 0 0 0 24,12 A12 12 0 0 0 12,0 A12 12 0 0 0 11.944,0 Z M16.906,7.224 C17.006,7.222 17.227,7.247 17.371,7.364 A0.506 0.506 0 0 1 17.542,7.689 C17.558,7.782 17.578,7.995 17.562,8.161 C17.382,10.059 16.6,14.663 16.202,16.788 C16.034,17.688 15.703,17.989 15.382,18.018 C14.686,18.083 14.157,17.558 13.482,17.116 C12.426,16.423 11.829,15.992 10.804,15.316 C9.619,14.536 10.387,14.106 11.062,13.406 C11.239,13.222 14.309,10.429 14.369,10.176 C14.376,10.144 14.383,10.026 14.313,9.964 C14.243,9.902 14.139,9.923 14.064,9.94 C13.958,9.964 12.271,11.08 9.003,13.285 C8.523,13.615 8.09,13.775 7.701,13.765 C7.273,13.757 6.449,13.524 5.836,13.325 C5.084,13.08 4.487,12.951 4.539,12.536 C4.566,12.32 4.864,12.099 5.432,11.873 C8.93,10.349 11.262,9.344 12.43,8.859 C15.762,7.473 16.455,7.232 16.906,7.224 Z"/>
</svg>
